<svg xmlns="http://www.w3.org/2000/svg" width="37.001" height="30" viewBox="0 0 37.001 30">
  <path id="Forme_6" data-name="Forme 6" d="M1125.252,375.951a.514.514,0,0,0-.9-.109,4.535,4.535,0,0,1-2.488,1.564,9.312,9.312,0,0,0-2.508,1.214,3.194,3.194,0,0,0-1.547,3.3l-.031.039a16.849,16.849,0,0,0-1.7-2.095,15.894,15.894,0,0,0-10.819-4.852c-.178-.006-.36-.01-.539-.01a15.871,15.871,0,0,0-15.549,18.071c.057.372.129.748.213,1.118,1.113,4.9,3.957,8.62,7.8,10.217a7.388,7.388,0,0,0,2.841.594,6.322,6.322,0,0,0,5.58-3.414,7.379,7.379,0,0,0,.887-2.537,6.148,6.148,0,0,0-.025-1.5,5.636,5.636,0,0,1-.022-1.463,1.96,1.96,0,0,1,2.06-1.759,3.17,3.17,0,0,1,.964.155c-.379.694-.723,1.357-1.023,1.971a19.953,19.953,0,0,0-1.306,3.2c-.142.508-.519,1.859.4,2.5a1.374,1.374,0,0,0,1.046.2c.347-.064,1.4-.26,4.4-3.671.8-.915,1.672-1.974,2.578-3.149a6.978,6.978,0,0,0,4.617-4.971,7.306,7.306,0,0,0,.149-1.781c.871-1.346,1.635-2.6,2.4-3.95.015-.026.029-.054.043-.082a4.235,4.235,0,0,0,2.642-2.387,8.154,8.154,0,0,0-.171-6.409Zm-12.58,8.387a2.189,2.189,0,1,1,.282-1.652,2.183,2.183,0,0,1-.282,1.652Zm2.844,3.967c1.108-1.631,2.28-3.252,3.392-4.694a6.08,6.08,0,0,0,.6.473,4.629,4.629,0,0,0,1.128.578c-.939,1.605-1.95,3.2-3.173,5a82.163,82.163,0,0,1-5.884,7.739,22.679,22.679,0,0,1-2.541,2.554,22.9,22.9,0,0,1,1.445-3.316,82.426,82.426,0,0,1,5.032-8.329Zm-19.451-.014a2.189,2.189,0,1,1,1.856-1.023,2.186,2.186,0,0,1-1.856,1.023Zm-2.3,4.822a2.188,2.188,0,1,1-.283,1.652,2.182,2.182,0,0,1,.283-1.652Zm7.018-13a2.188,2.188,0,1,1-.283,1.652,2.182,2.182,0,0,1,.283-1.652Zm0,0" transform="translate(-1088.999 -375)" fill="#22252c"/>
</svg>
